<svg width="52" height="66" viewBox="0 0 52 66" fill="none" xmlns="http://www.w3.org/2000/svg">
<path d="M19.703 33.0194C19.703 34.2807 20.0772 35.5136 20.7783 36.5621C21.4792 37.6106 22.4756 38.4275 23.641 38.9096C24.8065 39.3917 26.0887 39.5172 27.3256 39.2703C28.5624 39.0232 29.6982 38.4149 30.5891 37.5221C31.4801 36.6293 32.0862 35.4924 32.3305 34.255C32.5751 33.0177 32.4471 31.7357 31.9625 30.5711C31.4782 29.4066 30.6592 28.412 29.6093 27.7132C28.5593 27.0144 27.3256 26.6427 26.0643 26.6452C24.3761 26.6487 22.7581 27.3217 21.5655 28.5168C20.3728 29.7118 19.703 31.3311 19.703 33.0194Z" fill="#FA5F1D"/>
<path d="M26.0643 52.9419C24.8037 52.9419 23.5713 53.3157 22.523 54.0161C21.4748 54.7166 20.6579 55.7121 20.1754 56.8768C19.693 58.0415 19.5666 59.3232 19.8127 60.5597C20.0586 61.7961 20.6657 62.9319 21.5571 63.8234C22.4486 64.7148 23.5843 65.322 24.8208 65.5679C26.0574 65.8138 27.3389 65.6876 28.5037 65.2052C29.6685 64.7227 30.664 63.9057 31.3643 62.8574C32.0647 61.8092 32.4385 60.5768 32.4385 59.3161C32.4385 57.6255 31.7671 56.0043 30.5716 54.8089C29.3762 53.6135 27.7549 52.9419 26.0643 52.9419Z" fill="#FCBF01"/>
<path d="M45.6258 26.6452C44.365 26.6452 43.1326 27.019 42.0845 27.7195C41.0362 28.4199 40.2192 29.4154 39.7368 30.5802C39.2543 31.7448 39.1281 33.0265 39.374 34.263C39.62 35.4994 40.2271 36.6353 41.1186 37.5266C42.0099 38.4181 43.1458 39.0252 44.3822 39.2711C45.6187 39.5171 46.9004 39.3909 48.065 38.9084C49.2298 38.426 50.2253 37.609 50.9257 36.5607C51.6261 35.5126 52 34.2802 52 33.0194C52 31.3289 51.3284 29.7075 50.133 28.5122C48.9375 27.3168 47.3162 26.6452 45.6258 26.6452Z" fill="#F0156B"/>
<path d="M26.0643 12.7484C27.3256 12.751 28.5593 12.3792 29.6093 11.6804C30.6592 10.9816 31.4782 9.98698 31.9625 8.82246C32.4471 7.65794 32.5751 6.37588 32.3305 5.13859C32.0862 3.90129 31.4801 2.76426 30.5891 1.87149C29.6982 0.978839 28.5624 0.370448 27.3256 0.12348C26.0887 -0.123617 24.8065 0.001931 23.641 0.483996C22.4756 0.966062 21.4792 1.78297 20.7783 2.83149C20.0772 3.88 19.703 5.11291 19.703 6.3742C19.703 8.06246 20.3728 9.68182 21.5655 10.8769C22.7581 12.0719 24.3761 12.7449 26.0643 12.7484Z" fill="#EF0D74"/>
<path d="M12.7483 32.2839C12.7483 31.0232 12.3745 29.7908 11.6741 28.7425C10.9737 27.6944 9.97824 26.8774 8.81347 26.3949C7.64869 25.9125 6.36714 25.7863 5.13062 26.0322C3.8941 26.2781 2.75836 26.8852 1.86687 27.7767C0.975517 28.6681 0.368416 29.8038 0.12248 31.0403C-0.123456 32.2768 0.00273982 33.5585 0.485192 34.7232C0.967645 35.888 1.78468 36.8834 2.83281 37.5838C3.88107 38.2842 5.11346 38.6582 6.37411 38.6582C8.06469 38.6582 9.68598 37.9865 10.8815 36.7912C12.0768 35.5957 12.7483 33.9744 12.7483 32.2839Z" fill="#F01070"/>
<path d="M40.5677 41.7033C38.2875 39.4091 37.0076 36.3057 37.0076 33.071C37.0076 29.8363 38.2875 26.7329 40.5677 24.4387C41.4568 23.5462 42.0613 22.4105 42.3053 21.1747C42.5491 19.9389 42.4214 18.6586 41.9382 17.4952C41.4551 16.332 40.638 15.338 39.5903 14.6387C38.5427 13.9394 37.3113 13.5662 36.0516 13.5662C34.792 13.5662 33.5606 13.9394 32.513 14.6387C31.4653 15.338 30.6482 16.332 30.1651 17.4952C29.6819 18.6586 29.5541 19.9389 29.798 21.1747C30.042 22.4105 30.6465 23.5462 31.5354 24.4387C32.6809 25.5736 33.5902 26.9243 34.2107 28.4126C34.8311 29.9008 35.1505 31.4973 35.1505 33.1097C35.1505 34.7221 34.8311 36.3186 34.2107 37.8069C33.5902 39.2952 32.6809 40.6457 31.5354 41.7807C30.6465 42.6731 30.042 43.809 29.798 45.0447C29.5541 46.2806 29.6819 47.5609 30.1651 48.7242C30.6482 49.8874 31.4653 50.8815 32.513 51.5807C33.5606 52.2801 34.792 52.6532 36.0516 52.6532C37.3113 52.6532 38.5427 52.2801 39.5903 51.5807C40.638 50.8815 41.4551 49.8874 41.9382 48.7242C42.4214 47.5609 42.5491 46.2806 42.3053 45.0447C42.0613 43.809 41.4568 42.6731 40.5677 41.7807V41.7033Z" fill="#F0136D"/>
<path d="M22.2193 45.4195C22.2125 43.7459 21.5554 42.1404 20.387 40.942C18.1068 38.6478 16.8269 35.5445 16.8269 32.3098C16.8269 29.075 18.1068 25.9718 20.387 23.6775C21.2761 22.7851 21.8806 21.6492 22.1245 20.4135C22.3685 19.1777 22.2407 17.8973 21.7575 16.7341C21.2744 15.5708 20.4574 14.5768 19.4096 13.8775C18.362 13.1782 17.1305 12.8049 15.8709 12.8049C14.6113 12.8049 13.3799 13.1782 12.3322 13.8775C11.2846 14.5768 10.4675 15.5708 9.98431 16.7341C9.50121 17.8973 9.37347 19.1777 9.61734 20.4135C9.86134 21.6492 10.4659 22.7851 11.3548 23.6775C12.4982 24.8122 13.4059 26.162 14.0252 27.6491C14.6446 29.1362 14.9634 30.7312 14.9634 32.342C14.9634 33.953 14.6446 35.548 14.0252 37.0351C13.4059 38.5222 12.4982 39.872 11.3548 41.0065C10.621 41.7518 10.0817 42.6663 9.78482 43.6693C9.48792 44.6721 9.44224 45.7326 9.65204 46.7574C9.86185 47.782 10.3206 48.7393 10.9878 49.5449C11.655 50.3504 12.5101 50.9793 13.4779 51.3762C14.4456 51.7731 15.4961 51.9259 16.5367 51.8209C17.5774 51.7159 18.5762 51.3564 19.4451 50.774C20.314 50.1919 21.0263 49.4048 21.519 48.4822C22.0119 47.5596 22.2701 46.5299 22.2709 45.484L22.2193 45.4195Z" fill="#F92801"/>
</svg>
